# MagicaVoxel @ Ephtracy

# group
o 

# material
mtllib sign1.mtl
usemtl palette

# normals
vn -1 0 0
vn 1 0 0
vn 0 0 1
vn 0 0 -1
vn 0 -1 0
vn 0 1 0

# texcoords
vt 0.00195313 0.5
vt 0.0332031 0.5
vt 0.201172 0.5
vt 0.876953 0.5

# verts
v -3.2 0 1.6
v -3.2 0 1.5
v -3.2 3.2 1.6
v -3.2 3.2 1.5
v 2.8 0 1.6
v 2.8 0 1.5
v 2.8 1.6 1.6
v 2.8 1.6 1.5
v -2.8 0 1.6
v -2.8 0 1.5
v -2.8 1.6 1.6
v -2.8 1.6 1.5
v 3.2 0 1.6
v 3.2 0 1.5
v 3.2 3.2 1.6
v 3.2 3.2 1.5
v -3.2 0 1.6
v -3.2 3.2 1.6
v -3.1 0.1 1.6
v -3.1 1.6 1.6
v -3.1 1.7 1.6
v -3.1 3.1 1.6
v -2.9 0.1 1.6
v -2.9 1.6 1.6
v -2.8 0 1.6
v -2.8 1.6 1.6
v -1.8 2.2 1.6
v -1.8 2.5 1.6
v -1.7 2.1 1.6
v -1.7 2.2 1.6
v -1.7 2.3 1.6
v -1.7 2.4 1.6
v -1.7 2.5 1.6
v -1.7 2.6 1.6
v -1.6 2 1.6
v -1.6 2.1 1.6
v -1.6 2.2 1.6
v -1.6 2.3 1.6
v -1.6 2.4 1.6
v -1.6 2.5 1.6
v -1.6 2.6 1.6
v -1.6 2.7 1.6
v -1.5 1.9 1.6
v -1.5 2 1.6
v -1.5 2.1 1.6
v -1.5 2.2 1.6
v -1.5 2.3 1.6
v -1.5 2.4 1.6
v -1.5 2.5 1.6
v -1.5 2.6 1.6
v -1.5 2.7 1.6
v -1.5 2.8 1.6
v -1.4 1.8 1.6
v -1.4 1.9 1.6
v -1.4 2 1.6
v -1.4 2.1 1.6
v -1.4 2.2 1.6
v -1.4 2.5 1.6
v -1.4 2.6 1.6
v -1.4 2.7 1.6
v -1.4 2.8 1.6
v -1.4 2.9 1.6
v -1.3 1.9 1.6
v -1.3 2 1.6
v -1.3 2.1 1.6
v -1.3 2.6 1.6
v -1.3 2.7 1.6
v -1.3 2.8 1.6
v -1.2 1.9 1.6
v -1.2 2 1.6
v -1.2 2.1 1.6
v -1.2 2.2 1.6
v -1.2 2.5 1.6
v -1.2 2.6 1.6
v -1.2 2.7 1.6
v -1.2 2.8 1.6
v -1.1 1.8 1.6
v -1.1 2.1 1.6
v -1.1 2.6 1.6
v -1.1 2.9 1.6
v -0.6 2.3 1.6
v -0.6 2.4 1.6
v -0.5 2.2 1.6
v -0.5 2.5 1.6
v -0.0999999 2.2 1.6
v -0.0999999 2.5 1.6
v 0 2.3 1.6
v 0 2.4 1.6
v 0.1 2.3 1.6
v 0.1 2.4 1.6
v 0.2 2.2 1.6
v 0.2 2.5 1.6
v 0.6 2.2 1.6
v 0.6 2.5 1.6
v 0.7 2.3 1.6
v 0.7 2.4 1.6
v 1.2 1.8 1.6
v 1.2 2.1 1.6
v 1.2 2.6 1.6
v 1.2 2.9 1.6
v 1.3 1.9 1.6
v 1.3 2 1.6
v 1.3 2.1 1.6
v 1.3 2.2 1.6
v 1.3 2.5 1.6
v 1.3 2.6 1.6
v 1.3 2.7 1.6
v 1.3 2.8 1.6
v 1.4 1.9 1.6
v 1.4 2 1.6
v 1.4 2.1 1.6
v 1.4 2.6 1.6
v 1.4 2.7 1.6
v 1.4 2.8 1.6
v 1.5 1.8 1.6
v 1.5 1.9 1.6
v 1.5 2 1.6
v 1.5 2.1 1.6
v 1.5 2.2 1.6
v 1.5 2.5 1.6
v 1.5 2.6 1.6
v 1.5 2.7 1.6
v 1.5 2.8 1.6
v 1.5 2.9 1.6
v 1.6 1.9 1.6
v 1.6 2 1.6
v 1.6 2.1 1.6
v 1.6 2.2 1.6
v 1.6 2.3 1.6
v 1.6 2.4 1.6
v 1.6 2.5 1.6
v 1.6 2.6 1.6
v 1.6 2.7 1.6
v 1.6 2.8 1.6
v 1.7 2 1.6
v 1.7 2.1 1.6
v 1.7 2.2 1.6
v 1.7 2.3 1.6
v 1.7 2.4 1.6
v 1.7 2.5 1.6
v 1.7 2.6 1.6
v 1.7 2.7 1.6
v 1.8 2.1 1.6
v 1.8 2.2 1.6
v 1.8 2.3 1.6
v 1.8 2.4 1.6
v 1.8 2.5 1.6
v 1.8 2.6 1.6
v 1.9 2.2 1.6
v 1.9 2.5 1.6
v 2.8 0 1.6
v 2.8 1.6 1.6
v 2.9 0.1 1.6
v 2.9 1.6 1.6
v 3.1 0.1 1.6
v 3.1 1.6 1.6
v 3.1 1.7 1.6
v 3.1 3.1 1.6
v 3.2 0 1.6
v 3.2 3.2 1.6
v -3.2 0 1.5
v -3.2 3.2 1.5
v -3.1 0.1 1.5
v -3.1 1.6 1.5
v -3.1 1.7 1.5
v -3.1 3.1 1.5
v -2.9 0.1 1.5
v -2.9 1.6 1.5
v -2.8 0 1.5
v -2.8 1.6 1.5
v -1.8 2.2 1.5
v -1.8 2.5 1.5
v -1.7 2.1 1.5
v -1.7 2.2 1.5
v -1.7 2.3 1.5
v -1.7 2.4 1.5
v -1.7 2.5 1.5
v -1.7 2.6 1.5
v -1.6 2 1.5
v -1.6 2.1 1.5
v -1.6 2.2 1.5
v -1.6 2.3 1.5
v -1.6 2.4 1.5
v -1.6 2.5 1.5
v -1.6 2.6 1.5
v -1.6 2.7 1.5
v -1.5 1.9 1.5
v -1.5 2 1.5
v -1.5 2.1 1.5
v -1.5 2.2 1.5
v -1.5 2.3 1.5
v -1.5 2.4 1.5
v -1.5 2.5 1.5
v -1.5 2.6 1.5
v -1.5 2.7 1.5
v -1.5 2.8 1.5
v -1.4 1.8 1.5
v -1.4 1.9 1.5
v -1.4 2 1.5
v -1.4 2.1 1.5
v -1.4 2.2 1.5
v -1.4 2.5 1.5
v -1.4 2.6 1.5
v -1.4 2.7 1.5
v -1.4 2.8 1.5
v -1.4 2.9 1.5
v -1.3 1.9 1.5
v -1.3 2 1.5
v -1.3 2.1 1.5
v -1.3 2.6 1.5
v -1.3 2.7 1.5
v -1.3 2.8 1.5
v -1.2 1.9 1.5
v -1.2 2 1.5
v -1.2 2.1 1.5
v -1.2 2.2 1.5
v -1.2 2.5 1.5
v -1.2 2.6 1.5
v -1.2 2.7 1.5
v -1.2 2.8 1.5
v -1.1 1.8 1.5
v -1.1 2.1 1.5
v -1.1 2.6 1.5
v -1.1 2.9 1.5
v -0.6 2.3 1.5
v -0.6 2.4 1.5
v -0.5 2.2 1.5
v -0.5 2.5 1.5
v -0.0999999 2.2 1.5
v -0.0999999 2.5 1.5
v 0 2.3 1.5
v 0 2.4 1.5
v 0.1 2.3 1.5
v 0.1 2.4 1.5
v 0.2 2.2 1.5
v 0.2 2.5 1.5
v 0.6 2.2 1.5
v 0.6 2.5 1.5
v 0.7 2.3 1.5
v 0.7 2.4 1.5
v 1.2 1.8 1.5
v 1.2 2.1 1.5
v 1.2 2.6 1.5
v 1.2 2.9 1.5
v 1.3 1.9 1.5
v 1.3 2 1.5
v 1.3 2.1 1.5
v 1.3 2.2 1.5
v 1.3 2.5 1.5
v 1.3 2.6 1.5
v 1.3 2.7 1.5
v 1.3 2.8 1.5
v 1.4 1.9 1.5
v 1.4 2 1.5
v 1.4 2.1 1.5
v 1.4 2.6 1.5
v 1.4 2.7 1.5
v 1.4 2.8 1.5
v 1.5 1.8 1.5
v 1.5 1.9 1.5
v 1.5 2 1.5
v 1.5 2.1 1.5
v 1.5 2.2 1.5
v 1.5 2.5 1.5
v 1.5 2.6 1.5
v 1.5 2.7 1.5
v 1.5 2.8 1.5
v 1.5 2.9 1.5
v 1.6 1.9 1.5
v 1.6 2 1.5
v 1.6 2.1 1.5
v 1.6 2.2 1.5
v 1.6 2.3 1.5
v 1.6 2.4 1.5
v 1.6 2.5 1.5
v 1.6 2.6 1.5
v 1.6 2.7 1.5
v 1.6 2.8 1.5
v 1.7 2 1.5
v 1.7 2.1 1.5
v 1.7 2.2 1.5
v 1.7 2.3 1.5
v 1.7 2.4 1.5
v 1.7 2.5 1.5
v 1.7 2.6 1.5
v 1.7 2.7 1.5
v 1.8 2.1 1.5
v 1.8 2.2 1.5
v 1.8 2.3 1.5
v 1.8 2.4 1.5
v 1.8 2.5 1.5
v 1.8 2.6 1.5
v 1.9 2.2 1.5
v 1.9 2.5 1.5
v 2.8 0 1.5
v 2.8 1.6 1.5
v 2.9 0.1 1.5
v 2.9 1.6 1.5
v 3.1 0.1 1.5
v 3.1 1.6 1.5
v 3.1 1.7 1.5
v 3.1 3.1 1.5
v 3.2 0 1.5
v 3.2 3.2 1.5
v -3.2 0 1.6
v -2.8 0 1.6
v 2.8 0 1.6
v 3.2 0 1.6
v -3.2 0 1.5
v -2.8 0 1.5
v 2.8 0 1.5
v 3.2 0 1.5
v -2.8 1.6 1.6
v 2.8 1.6 1.6
v -2.8 1.6 1.5
v 2.8 1.6 1.5
v -3.2 3.2 1.6
v 3.2 3.2 1.6
v -3.2 3.2 1.5
v 3.2 3.2 1.5

# faces
f 3/3/1 2/3/1 1/3/1
f 4/3/1 2/3/1 3/3/1
f 7/3/1 6/3/1 5/3/1
f 8/3/1 6/3/1 7/3/1
f 9/3/2 10/3/2 11/3/2
f 11/3/2 10/3/2 12/3/2
f 13/3/2 14/3/2 15/3/2
f 15/3/2 14/3/2 16/3/2
f 19/3/3 18/3/3 17/3/3
f 20/3/3 18/3/3 19/3/3
f 21/3/3 18/3/3 20/3/3
f 22/3/3 18/3/3 21/3/3
f 23/3/3 19/3/3 17/3/3
f 23/2/3 20/2/3 19/2/3
f 24/3/3 21/3/3 20/3/3
f 24/2/3 20/2/3 23/2/3
f 25/3/3 23/3/3 17/3/3
f 25/3/3 24/3/3 23/3/3
f 26/3/3 21/3/3 24/3/3
f 26/3/3 24/3/3 25/3/3
f 27/2/3 22/2/3 21/2/3
f 28/2/3 22/2/3 27/2/3
f 29/2/3 27/2/3 21/2/3
f 30/1/3 28/1/3 27/1/3
f 30/2/3 27/2/3 29/2/3
f 31/1/3 28/1/3 30/1/3
f 32/1/3 28/1/3 31/1/3
f 33/2/3 22/2/3 28/2/3
f 33/1/3 28/1/3 32/1/3
f 34/2/3 22/2/3 33/2/3
f 35/2/3 29/2/3 21/2/3
f 36/1/3 30/1/3 29/1/3
f 36/2/3 29/2/3 35/2/3
f 36/1/3 31/1/3 30/1/3
f 37/1/3 31/1/3 36/1/3
f 38/4/3 32/4/3 31/4/3
f 38/1/3 31/1/3 37/1/3
f 39/1/3 34/1/3 33/1/3
f 39/4/3 32/4/3 38/4/3
f 39/1/3 33/1/3 32/1/3
f 40/1/3 34/1/3 39/1/3
f 41/2/3 22/2/3 34/2/3
f 41/1/3 34/1/3 40/1/3
f 42/2/3 22/2/3 41/2/3
f 43/2/3 35/2/3 21/2/3
f 44/1/3 37/1/3 36/1/3
f 44/2/3 35/2/3 43/2/3
f 44/1/3 36/1/3 35/1/3
f 45/1/3 37/1/3 44/1/3
f 46/4/3 40/4/3 39/4/3
f 46/1/3 37/1/3 45/1/3
f 46/4/3 38/4/3 37/4/3
f 46/4/3 39/4/3 38/4/3
f 47/4/3 40/4/3 46/4/3
f 48/4/3 40/4/3 47/4/3
f 49/1/3 42/1/3 41/1/3
f 49/4/3 40/4/3 48/4/3
f 49/1/3 41/1/3 40/1/3
f 50/1/3 42/1/3 49/1/3
f 51/2/3 22/2/3 42/2/3
f 51/1/3 42/1/3 50/1/3
f 52/2/3 22/2/3 51/2/3
f 53/2/3 43/2/3 21/2/3
f 54/1/3 45/1/3 44/1/3
f 54/2/3 43/2/3 53/2/3
f 54/1/3 44/1/3 43/1/3
f 55/1/3 45/1/3 54/1/3
f 56/4/3 46/4/3 45/4/3
f 56/1/3 45/1/3 55/1/3
f 57/1/3 47/1/3 46/1/3
f 57/4/3 46/4/3 56/4/3
f 58/4/3 50/4/3 49/4/3
f 58/1/3 49/1/3 48/1/3
f 59/1/3 52/1/3 51/1/3
f 59/4/3 50/4/3 58/4/3
f 59/1/3 51/1/3 50/1/3
f 60/1/3 52/1/3 59/1/3
f 61/2/3 22/2/3 52/2/3
f 61/1/3 52/1/3 60/1/3
f 62/2/3 22/2/3 61/2/3
f 63/1/3 55/1/3 54/1/3
f 63/1/3 54/1/3 53/1/3
f 64/4/3 56/4/3 55/4/3
f 64/1/3 55/1/3 63/1/3
f 65/1/3 57/1/3 56/1/3
f 65/4/3 56/4/3 64/4/3
f 66/4/3 60/4/3 59/4/3
f 66/1/3 59/1/3 58/1/3
f 67/1/3 62/1/3 61/1/3
f 67/4/3 60/4/3 66/4/3
f 67/1/3 61/1/3 60/1/3
f 68/1/3 62/1/3 67/1/3
f 69/1/3 63/1/3 53/1/3
f 69/4/3 64/4/3 63/4/3
f 70/1/3 65/1/3 64/1/3
f 70/4/3 64/4/3 69/4/3
f 71/1/3 57/1/3 65/1/3
f 71/1/3 65/1/3 70/1/3
f 72/1/3 47/1/3 57/1/3
f 72/1/3 57/1/3 71/1/3
f 73/1/3 58/1/3 48/1/3
f 73/1/3 66/1/3 58/1/3
f 73/1/3 67/1/3 66/1/3
f 74/1/3 67/1/3 73/1/3
f 75/4/3 68/4/3 67/4/3
f 75/1/3 67/1/3 74/1/3
f 76/1/3 62/1/3 68/1/3
f 76/4/3 68/4/3 75/4/3
f 77/1/3 70/1/3 69/1/3
f 77/2/3 53/2/3 21/2/3
f 77/1/3 71/1/3 70/1/3
f 77/1/3 69/1/3 53/1/3
f 78/2/3 72/2/3 71/2/3
f 78/1/3 71/1/3 77/1/3
f 79/1/3 76/1/3 75/1/3
f 79/1/3 75/1/3 74/1/3
f 79/2/3 74/2/3 73/2/3
f 80/1/3 62/1/3 76/1/3
f 80/1/3 76/1/3 79/1/3
f 80/2/3 22/2/3 62/2/3
f 81/1/3 47/1/3 72/1/3
f 81/4/3 48/4/3 47/4/3
f 82/1/3 73/1/3 48/1/3
f 82/4/3 48/4/3 81/4/3
f 83/2/3 72/2/3 78/2/3
f 83/1/3 81/1/3 72/1/3
f 83/1/3 82/1/3 81/1/3
f 83/2/3 78/2/3 77/2/3
f 84/2/3 79/2/3 73/2/3
f 84/1/3 82/1/3 83/1/3
f 84/1/3 73/1/3 82/1/3
f 84/2/3 80/2/3 79/2/3
f 85/2/3 83/2/3 77/2/3
f 85/2/3 84/2/3 83/2/3
f 86/2/3 80/2/3 84/2/3
f 86/2/3 84/2/3 85/2/3
f 87/1/3 86/1/3 85/1/3
f 88/1/3 86/1/3 87/1/3
f 89/1/3 87/1/3 85/1/3
f 89/4/3 88/4/3 87/4/3
f 90/1/3 86/1/3 88/1/3
f 90/4/3 88/4/3 89/4/3
f 91/2/3 85/2/3 77/2/3
f 91/1/3 89/1/3 85/1/3
f 91/1/3 90/1/3 89/1/3
f 92/1/3 86/1/3 90/1/3
f 92/1/3 90/1/3 91/1/3
f 92/2/3 80/2/3 86/2/3
f 93/2/3 91/2/3 77/2/3
f 93/2/3 92/2/3 91/2/3
f 94/2/3 80/2/3 92/2/3
f 94/2/3 92/2/3 93/2/3
f 95/1/3 94/1/3 93/1/3
f 96/1/3 94/1/3 95/1/3
f 97/2/3 93/2/3 77/2/3
f 97/2/3 77/2/3 21/2/3
f 98/2/3 93/2/3 97/2/3
f 99/2/3 80/2/3 94/2/3
f 100/2/3 22/2/3 80/2/3
f 100/2/3 80/2/3 99/2/3
f 101/1/3 98/1/3 97/1/3
f 102/1/3 98/1/3 101/1/3
f 103/2/3 93/2/3 98/2/3
f 103/1/3 98/1/3 102/1/3
f 104/1/3 95/1/3 93/1/3
f 104/2/3 93/2/3 103/2/3
f 105/1/3 94/1/3 96/1/3
f 105/2/3 99/2/3 94/2/3
f 106/1/3 100/1/3 99/1/3
f 106/2/3 99/2/3 105/2/3
f 107/1/3 100/1/3 106/1/3
f 108/1/3 100/1/3 107/1/3
f 109/4/3 102/4/3 101/4/3
f 109/1/3 101/1/3 97/1/3
f 110/1/3 104/1/3 103/1/3
f 110/4/3 102/4/3 109/4/3
f 110/1/3 103/1/3 102/1/3
f 111/1/3 104/1/3 110/1/3
f 112/1/3 107/1/3 106/1/3
f 112/1/3 106/1/3 105/1/3
f 113/4/3 108/4/3 107/4/3
f 113/1/3 107/1/3 112/1/3
f 114/1/3 100/1/3 108/1/3
f 114/4/3 108/4/3 113/4/3
f 115/1/3 109/1/3 97/1/3
f 115/2/3 97/2/3 21/2/3
f 115/1/3 110/1/3 109/1/3
f 116/1/3 110/1/3 115/1/3
f 117/4/3 111/4/3 110/4/3
f 117/1/3 110/1/3 116/1/3
f 118/1/3 104/1/3 111/1/3
f 118/4/3 111/4/3 117/4/3
f 119/1/3 95/1/3 104/1/3
f 119/1/3 104/1/3 118/1/3
f 120/1/3 105/1/3 96/1/3
f 120/1/3 112/1/3 105/1/3
f 121/4/3 113/4/3 112/4/3
f 121/1/3 112/1/3 120/1/3
f 122/1/3 114/1/3 113/1/3
f 122/4/3 113/4/3 121/4/3
f 123/1/3 100/1/3 114/1/3
f 123/1/3 114/1/3 122/1/3
f 124/2/3 22/2/3 100/2/3
f 124/1/3 100/1/3 123/1/3
f 125/1/3 118/1/3 117/1/3
f 125/1/3 117/1/3 116/1/3
f 125/2/3 116/2/3 115/2/3
f 126/1/3 118/1/3 125/1/3
f 127/4/3 119/4/3 118/4/3
f 127/1/3 118/1/3 126/1/3
f 128/1/3 95/1/3 119/1/3
f 128/4/3 119/4/3 127/4/3
f 129/4/3 96/4/3 95/4/3
f 129/1/3 95/1/3 128/1/3
f 130/1/3 120/1/3 96/1/3
f 130/4/3 96/4/3 129/4/3
f 131/4/3 121/4/3 120/4/3
f 131/1/3 120/1/3 130/1/3
f 132/1/3 122/1/3 121/1/3
f 132/4/3 121/4/3 131/4/3
f 132/1/3 123/1/3 122/1/3
f 133/1/3 123/1/3 132/1/3
f 134/2/3 124/2/3 123/2/3
f 134/1/3 123/1/3 133/1/3
f 135/1/3 128/1/3 127/1/3
f 135/1/3 127/1/3 126/1/3
f 135/2/3 126/2/3 125/2/3
f 136/1/3 128/1/3 135/1/3
f 137/4/3 131/4/3 130/4/3
f 137/1/3 128/1/3 136/1/3
f 137/4/3 129/4/3 128/4/3
f 137/4/3 130/4/3 129/4/3
f 138/4/3 131/4/3 137/4/3
f 139/4/3 131/4/3 138/4/3
f 140/1/3 133/1/3 132/1/3
f 140/4/3 131/4/3 139/4/3
f 140/1/3 132/1/3 131/1/3
f 141/1/3 133/1/3 140/1/3
f 142/2/3 134/2/3 133/2/3
f 142/1/3 133/1/3 141/1/3
f 143/2/3 136/2/3 135/2/3
f 143/1/3 138/1/3 137/1/3
f 143/1/3 137/1/3 136/1/3
f 144/1/3 138/1/3 143/1/3
f 145/4/3 139/4/3 138/4/3
f 145/1/3 138/1/3 144/1/3
f 146/1/3 141/1/3 140/1/3
f 146/4/3 139/4/3 145/4/3
f 146/1/3 140/1/3 139/1/3
f 147/1/3 141/1/3 146/1/3
f 148/2/3 142/2/3 141/2/3
f 148/1/3 141/1/3 147/1/3
f 149/2/3 144/2/3 143/2/3
f 149/1/3 145/1/3 144/1/3
f 149/1/3 147/1/3 146/1/3
f 149/1/3 146/1/3 145/1/3
f 150/2/3 148/2/3 147/2/3
f 150/1/3 147/1/3 149/1/3
f 152/3/3 21/3/3 26/3/3
f 153/3/3 152/3/3 151/3/3
f 154/3/3 21/3/3 152/3/3
f 154/3/3 152/3/3 153/3/3
f 155/3/3 153/3/3 151/3/3
f 155/2/3 154/2/3 153/2/3
f 156/3/3 21/3/3 154/3/3
f 156/2/3 154/2/3 155/2/3
f 157/2/3 135/2/3 125/2/3
f 157/3/3 21/3/3 156/3/3
f 157/2/3 115/2/3 21/2/3
f 157/2/3 125/2/3 115/2/3
f 157/2/3 149/2/3 143/2/3
f 157/2/3 150/2/3 149/2/3
f 157/2/3 143/2/3 135/2/3
f 158/3/3 18/3/3 22/3/3
f 158/2/3 150/2/3 157/2/3
f 158/2/3 148/2/3 150/2/3
f 158/2/3 22/2/3 124/2/3
f 158/2/3 134/2/3 142/2/3
f 158/2/3 142/2/3 148/2/3
f 158/2/3 124/2/3 134/2/3
f 159/3/3 157/3/3 156/3/3
f 159/3/3 155/3/3 151/3/3
f 159/3/3 158/3/3 157/3/3
f 159/3/3 156/3/3 155/3/3
f 160/3/3 18/3/3 158/3/3
f 160/3/3 158/3/3 159/3/3
f 161/3/4 162/3/4 163/3/4
f 163/3/4 162/3/4 164/3/4
f 164/3/4 162/3/4 165/3/4
f 165/3/4 162/3/4 166/3/4
f 161/3/4 163/3/4 167/3/4
f 163/2/4 164/2/4 167/2/4
f 164/3/4 165/3/4 168/3/4
f 167/2/4 164/2/4 168/2/4
f 161/3/4 167/3/4 169/3/4
f 167/3/4 168/3/4 169/3/4
f 168/3/4 165/3/4 170/3/4
f 169/3/4 168/3/4 170/3/4
f 165/2/4 166/2/4 171/2/4
f 171/2/4 166/2/4 172/2/4
f 165/2/4 171/2/4 173/2/4
f 171/1/4 172/1/4 174/1/4
f 173/2/4 171/2/4 174/2/4
f 174/1/4 172/1/4 175/1/4
f 175/1/4 172/1/4 176/1/4
f 172/2/4 166/2/4 177/2/4
f 176/1/4 172/1/4 177/1/4
f 177/2/4 166/2/4 178/2/4
f 165/2/4 173/2/4 179/2/4
f 173/1/4 174/1/4 180/1/4
f 179/2/4 173/2/4 180/2/4
f 174/1/4 175/1/4 180/1/4
f 180/1/4 175/1/4 181/1/4
f 175/4/4 176/4/4 182/4/4
f 181/1/4 175/1/4 182/1/4
f 177/1/4 178/1/4 183/1/4
f 182/4/4 176/4/4 183/4/4
f 176/1/4 177/1/4 183/1/4
f 183/1/4 178/1/4 184/1/4
f 178/2/4 166/2/4 185/2/4
f 184/1/4 178/1/4 185/1/4
f 185/2/4 166/2/4 186/2/4
f 165/2/4 179/2/4 187/2/4
f 180/1/4 181/1/4 188/1/4
f 187/2/4 179/2/4 188/2/4
f 179/1/4 180/1/4 188/1/4
f 188/1/4 181/1/4 189/1/4
f 183/4/4 184/4/4 190/4/4
f 189/1/4 181/1/4 190/1/4
f 181/4/4 182/4/4 190/4/4
f 182/4/4 183/4/4 190/4/4
f 190/4/4 184/4/4 191/4/4
f 191/4/4 184/4/4 192/4/4
f 185/1/4 186/1/4 193/1/4
f 192/4/4 184/4/4 193/4/4
f 184/1/4 185/1/4 193/1/4
f 193/1/4 186/1/4 194/1/4
f 186/2/4 166/2/4 195/2/4
f 194/1/4 186/1/4 195/1/4
f 195/2/4 166/2/4 196/2/4
f 165/2/4 187/2/4 197/2/4
f 188/1/4 189/1/4 198/1/4
f 197/2/4 187/2/4 198/2/4
f 187/1/4 188/1/4 198/1/4
f 198/1/4 189/1/4 199/1/4
f 189/4/4 190/4/4 200/4/4
f 199/1/4 189/1/4 200/1/4
f 190/1/4 191/1/4 201/1/4
f 200/4/4 190/4/4 201/4/4
f 193/4/4 194/4/4 202/4/4
f 192/1/4 193/1/4 202/1/4
f 195/1/4 196/1/4 203/1/4
f 202/4/4 194/4/4 203/4/4
f 194/1/4 195/1/4 203/1/4
f 203/1/4 196/1/4 204/1/4
f 196/2/4 166/2/4 205/2/4
f 204/1/4 196/1/4 205/1/4
f 205/2/4 166/2/4 206/2/4
f 198/1/4 199/1/4 207/1/4
f 197/1/4 198/1/4 207/1/4
f 199/4/4 200/4/4 208/4/4
f 207/1/4 199/1/4 208/1/4
f 200/1/4 201/1/4 209/1/4
f 208/4/4 200/4/4 209/4/4
f 203/4/4 204/4/4 210/4/4
f 202/1/4 203/1/4 210/1/4
f 205/1/4 206/1/4 211/1/4
f 210/4/4 204/4/4 211/4/4
f 204/1/4 205/1/4 211/1/4
f 211/1/4 206/1/4 212/1/4
f 197/1/4 207/1/4 213/1/4
f 207/4/4 208/4/4 213/4/4
f 208/1/4 209/1/4 214/1/4
f 213/4/4 208/4/4 214/4/4
f 209/1/4 201/1/4 215/1/4
f 214/1/4 209/1/4 215/1/4
f 201/1/4 191/1/4 216/1/4
f 215/1/4 201/1/4 216/1/4
f 192/1/4 202/1/4 217/1/4
f 202/1/4 210/1/4 217/1/4
f 210/1/4 211/1/4 217/1/4
f 217/1/4 211/1/4 218/1/4
f 211/4/4 212/4/4 219/4/4
f 218/1/4 211/1/4 219/1/4
f 212/1/4 206/1/4 220/1/4
f 219/4/4 212/4/4 220/4/4
f 213/1/4 214/1/4 221/1/4
f 165/2/4 197/2/4 221/2/4
f 214/1/4 215/1/4 221/1/4
f 197/1/4 213/1/4 221/1/4
f 215/2/4 216/2/4 222/2/4
f 221/1/4 215/1/4 222/1/4
f 219/1/4 220/1/4 223/1/4
f 218/1/4 219/1/4 223/1/4
f 217/2/4 218/2/4 223/2/4
f 220/1/4 206/1/4 224/1/4
f 223/1/4 220/1/4 224/1/4
f 206/2/4 166/2/4 224/2/4
f 216/1/4 191/1/4 225/1/4
f 191/4/4 192/4/4 225/4/4
f 192/1/4 217/1/4 226/1/4
f 225/4/4 192/4/4 226/4/4
f 222/2/4 216/2/4 227/2/4
f 216/1/4 225/1/4 227/1/4
f 225/1/4 226/1/4 227/1/4
f 221/2/4 222/2/4 227/2/4
f 217/2/4 223/2/4 228/2/4
f 227/1/4 226/1/4 228/1/4
f 226/1/4 217/1/4 228/1/4
f 223/2/4 224/2/4 228/2/4
f 221/2/4 227/2/4 229/2/4
f 227/2/4 228/2/4 229/2/4
f 228/2/4 224/2/4 230/2/4
f 229/2/4 228/2/4 230/2/4
f 229/1/4 230/1/4 231/1/4
f 231/1/4 230/1/4 232/1/4
f 229/1/4 231/1/4 233/1/4
f 231/4/4 232/4/4 233/4/4
f 232/1/4 230/1/4 234/1/4
f 233/4/4 232/4/4 234/4/4
f 221/2/4 229/2/4 235/2/4
f 229/1/4 233/1/4 235/1/4
f 233/1/4 234/1/4 235/1/4
f 234/1/4 230/1/4 236/1/4
f 235/1/4 234/1/4 236/1/4
f 230/2/4 224/2/4 236/2/4
f 221/2/4 235/2/4 237/2/4
f 235/2/4 236/2/4 237/2/4
f 236/2/4 224/2/4 238/2/4
f 237/2/4 236/2/4 238/2/4
f 237/1/4 238/1/4 239/1/4
f 239/1/4 238/1/4 240/1/4
f 221/2/4 237/2/4 241/2/4
f 165/2/4 221/2/4 241/2/4
f 241/2/4 237/2/4 242/2/4
f 238/2/4 224/2/4 243/2/4
f 224/2/4 166/2/4 244/2/4
f 243/2/4 224/2/4 244/2/4
f 241/1/4 242/1/4 245/1/4
f 245/1/4 242/1/4 246/1/4
f 242/2/4 237/2/4 247/2/4
f 246/1/4 242/1/4 247/1/4
f 237/1/4 239/1/4 248/1/4
f 247/2/4 237/2/4 248/2/4
f 240/1/4 238/1/4 249/1/4
f 238/2/4 243/2/4 249/2/4
f 243/1/4 244/1/4 250/1/4
f 249/2/4 243/2/4 250/2/4
f 250/1/4 244/1/4 251/1/4
f 251/1/4 244/1/4 252/1/4
f 245/4/4 246/4/4 253/4/4
f 241/1/4 245/1/4 253/1/4
f 247/1/4 248/1/4 254/1/4
f 253/4/4 246/4/4 254/4/4
f 246/1/4 247/1/4 254/1/4
f 254/1/4 248/1/4 255/1/4
f 250/1/4 251/1/4 256/1/4
f 249/1/4 250/1/4 256/1/4
f 251/4/4 252/4/4 257/4/4
f 256/1/4 251/1/4 257/1/4
f 252/1/4 244/1/4 258/1/4
f 257/4/4 252/4/4 258/4/4
f 241/1/4 253/1/4 259/1/4
f 165/2/4 241/2/4 259/2/4
f 253/1/4 254/1/4 259/1/4
f 259/1/4 254/1/4 260/1/4
f 254/4/4 255/4/4 261/4/4
f 260/1/4 254/1/4 261/1/4
f 255/1/4 248/1/4 262/1/4
f 261/4/4 255/4/4 262/4/4
f 248/1/4 239/1/4 263/1/4
f 262/1/4 248/1/4 263/1/4
f 240/1/4 249/1/4 264/1/4
f 249/1/4 256/1/4 264/1/4
f 256/4/4 257/4/4 265/4/4
f 264/1/4 256/1/4 265/1/4
f 257/1/4 258/1/4 266/1/4
f 265/4/4 257/4/4 266/4/4
f 258/1/4 244/1/4 267/1/4
f 266/1/4 258/1/4 267/1/4
f 244/2/4 166/2/4 268/2/4
f 267/1/4 244/1/4 268/1/4
f 261/1/4 262/1/4 269/1/4
f 260/1/4 261/1/4 269/1/4
f 259/2/4 260/2/4 269/2/4
f 269/1/4 262/1/4 270/1/4
f 262/4/4 263/4/4 271/4/4
f 270/1/4 262/1/4 271/1/4
f 263/1/4 239/1/4 272/1/4
f 271/4/4 263/4/4 272/4/4
f 239/4/4 240/4/4 273/4/4
f 272/1/4 239/1/4 273/1/4
f 240/1/4 264/1/4 274/1/4
f 273/4/4 240/4/4 274/4/4
f 264/4/4 265/4/4 275/4/4
f 274/1/4 264/1/4 275/1/4
f 265/1/4 266/1/4 276/1/4
f 275/4/4 265/4/4 276/4/4
f 266/1/4 267/1/4 276/1/4
f 276/1/4 267/1/4 277/1/4
f 267/2/4 268/2/4 278/2/4
f 277/1/4 267/1/4 278/1/4
f 271/1/4 272/1/4 279/1/4
f 270/1/4 271/1/4 279/1/4
f 269/2/4 270/2/4 279/2/4
f 279/1/4 272/1/4 280/1/4
f 274/4/4 275/4/4 281/4/4
f 280/1/4 272/1/4 281/1/4
f 272/4/4 273/4/4 281/4/4
f 273/4/4 274/4/4 281/4/4
f 281/4/4 275/4/4 282/4/4
f 282/4/4 275/4/4 283/4/4
f 276/1/4 277/1/4 284/1/4
f 283/4/4 275/4/4 284/4/4
f 275/1/4 276/1/4 284/1/4
f 284/1/4 277/1/4 285/1/4
f 277/2/4 278/2/4 286/2/4
f 285/1/4 277/1/4 286/1/4
f 279/2/4 280/2/4 287/2/4
f 281/1/4 282/1/4 287/1/4
f 280/1/4 281/1/4 287/1/4
f 287/1/4 282/1/4 288/1/4
f 282/4/4 283/4/4 289/4/4
f 288/1/4 282/1/4 289/1/4
f 284/1/4 285/1/4 290/1/4
f 289/4/4 283/4/4 290/4/4
f 283/1/4 284/1/4 290/1/4
f 290/1/4 285/1/4 291/1/4
f 285/2/4 286/2/4 292/2/4
f 291/1/4 285/1/4 292/1/4
f 287/2/4 288/2/4 293/2/4
f 288/1/4 289/1/4 293/1/4
f 290/1/4 291/1/4 293/1/4
f 289/1/4 290/1/4 293/1/4
f 291/2/4 292/2/4 294/2/4
f 293/1/4 291/1/4 294/1/4
f 170/3/4 165/3/4 296/3/4
f 295/3/4 296/3/4 297/3/4
f 296/3/4 165/3/4 298/3/4
f 297/3/4 296/3/4 298/3/4
f 295/3/4 297/3/4 299/3/4
f 297/2/4 298/2/4 299/2/4
f 298/3/4 165/3/4 300/3/4
f 299/2/4 298/2/4 300/2/4
f 269/2/4 279/2/4 301/2/4
f 300/3/4 165/3/4 301/3/4
f 165/2/4 259/2/4 301/2/4
f 259/2/4 269/2/4 301/2/4
f 287/2/4 293/2/4 301/2/4
f 293/2/4 294/2/4 301/2/4
f 279/2/4 287/2/4 301/2/4
f 166/3/4 162/3/4 302/3/4
f 301/2/4 294/2/4 302/2/4
f 294/2/4 292/2/4 302/2/4
f 268/2/4 166/2/4 302/2/4
f 286/2/4 278/2/4 302/2/4
f 292/2/4 286/2/4 302/2/4
f 278/2/4 268/2/4 302/2/4
f 300/3/4 301/3/4 303/3/4
f 295/3/4 299/3/4 303/3/4
f 301/3/4 302/3/4 303/3/4
f 299/3/4 300/3/4 303/3/4
f 302/3/4 162/3/4 304/3/4
f 303/3/4 302/3/4 304/3/4
f 309/3/5 306/3/5 305/3/5
f 310/3/5 306/3/5 309/3/5
f 311/3/5 308/3/5 307/3/5
f 312/3/5 308/3/5 311/3/5
f 315/3/5 314/3/5 313/3/5
f 316/3/5 314/3/5 315/3/5
f 317/3/6 318/3/6 319/3/6
f 319/3/6 318/3/6 320/3/6
