# MagicaVoxel @ Ephtracy

# group
o 

# material
mtllib sign.mtl
usemtl palette

# normals
vn -1 0 0
vn 1 0 0
vn 0 0 1
vn 0 0 -1
vn 0 -1 0
vn 0 1 0

# texcoords
vt 0.00195313 0.5
vt 0.0332031 0.5
vt 0.201172 0.5

# verts
v -1.6 1.3 1.6
v -1.6 1.3 1.5
v -1.6 2.9 1.6
v -1.6 2.9 1.5
v -0.2 0 1.6
v -0.2 0 1.5
v -0.2 1.3 1.6
v -0.2 1.3 1.5
v -0.2 2.9 1.6
v -0.2 2.9 1.5
v -0.2 3.2 1.6
v -0.2 3.2 1.5
v 0.2 0 1.6
v 0.2 0 1.5
v 0.2 1.3 1.6
v 0.2 1.3 1.5
v 0.2 2.9 1.6
v 0.2 2.9 1.5
v 0.2 3.2 1.6
v 0.2 3.2 1.5
v 1.6 1.3 1.6
v 1.6 1.3 1.5
v 1.6 2.9 1.6
v 1.6 2.9 1.5
v -1.6 1.3 1.6
v -1.6 2.9 1.6
v -1.5 1.4 1.6
v -1.5 2.8 1.6
v -1.3 1.6 1.6
v -1.3 1.7 1.6
v -1.3 1.8 1.6
v -1.3 1.9 1.6
v -1.3 2 1.6
v -1.3 2.1 1.6
v -1.3 2.2 1.6
v -1.3 2.3 1.6
v -1.3 2.4 1.6
v -1.3 2.6 1.6
v -0.2 0 1.6
v -0.2 1.3 1.6
v -0.2 1.6 1.6
v -0.2 1.7 1.6
v -0.2 1.8 1.6
v -0.2 1.9 1.6
v -0.2 2 1.6
v -0.2 2.1 1.6
v -0.2 2.9 1.6
v -0.2 3.2 1.6
v -0.1 0.1 1.6
v -0.1 1.3 1.6
v -0.1 2.9 1.6
v -0.1 3.1 1.6
v 0.1 0.1 1.6
v 0.1 1.3 1.6
v 0.1 2.9 1.6
v 0.1 3.1 1.6
v 0.2 0 1.6
v 0.2 1.3 1.6
v 0.2 1.6 1.6
v 0.2 1.7 1.6
v 0.2 1.8 1.6
v 0.2 1.9 1.6
v 0.2 2 1.6
v 0.2 2.1 1.6
v 0.2 2.9 1.6
v 0.2 3.2 1.6
v 1.3 1.6 1.6
v 1.3 1.7 1.6
v 1.3 1.8 1.6
v 1.3 1.9 1.6
v 1.3 2 1.6
v 1.3 2.1 1.6
v 1.3 2.2 1.6
v 1.3 2.3 1.6
v 1.3 2.4 1.6
v 1.3 2.6 1.6
v 1.5 1.4 1.6
v 1.5 2.8 1.6
v 1.6 1.3 1.6
v 1.6 2.9 1.6
v -1.6 1.3 1.5
v -1.6 2.9 1.5
v -1.5 1.4 1.5
v -1.5 2.8 1.5
v -1.3 1.6 1.5
v -1.3 1.7 1.5
v -1.3 1.8 1.5
v -1.3 1.9 1.5
v -1.3 2 1.5
v -1.3 2.1 1.5
v -1.3 2.2 1.5
v -1.3 2.3 1.5
v -1.3 2.4 1.5
v -1.3 2.6 1.5
v -0.2 0 1.5
v -0.2 1.3 1.5
v -0.2 1.6 1.5
v -0.2 1.7 1.5
v -0.2 1.8 1.5
v -0.2 1.9 1.5
v -0.2 2 1.5
v -0.2 2.1 1.5
v -0.2 2.9 1.5
v -0.2 3.2 1.5
v -0.1 0.1 1.5
v -0.1 1.3 1.5
v -0.1 2.9 1.5
v -0.1 3.1 1.5
v 0.1 0.1 1.5
v 0.1 1.3 1.5
v 0.1 2.9 1.5
v 0.1 3.1 1.5
v 0.2 0 1.5
v 0.2 1.3 1.5
v 0.2 1.6 1.5
v 0.2 1.7 1.5
v 0.2 1.8 1.5
v 0.2 1.9 1.5
v 0.2 2 1.5
v 0.2 2.1 1.5
v 0.2 2.9 1.5
v 0.2 3.2 1.5
v 1.3 1.6 1.5
v 1.3 1.7 1.5
v 1.3 1.8 1.5
v 1.3 1.9 1.5
v 1.3 2 1.5
v 1.3 2.1 1.5
v 1.3 2.2 1.5
v 1.3 2.3 1.5
v 1.3 2.4 1.5
v 1.3 2.6 1.5
v 1.5 1.4 1.5
v 1.5 2.8 1.5
v 1.6 1.3 1.5
v 1.6 2.9 1.5
v -0.2 0 1.6
v 0.2 0 1.6
v -0.2 0 1.5
v 0.2 0 1.5
v -1.6 1.3 1.6
v -0.2 1.3 1.6
v 0.2 1.3 1.6
v 1.6 1.3 1.6
v -1.6 1.3 1.5
v -0.2 1.3 1.5
v 0.2 1.3 1.5
v 1.6 1.3 1.5
v -1.6 2.9 1.6
v -0.2 2.9 1.6
v 0.2 2.9 1.6
v 1.6 2.9 1.6
v -1.6 2.9 1.5
v -0.2 2.9 1.5
v 0.2 2.9 1.5
v 1.6 2.9 1.5
v -0.2 3.2 1.6
v 0.2 3.2 1.6
v -0.2 3.2 1.5
v 0.2 3.2 1.5

# faces
f 3/3/1 2/3/1 1/3/1
f 4/3/1 2/3/1 3/3/1
f 7/3/1 6/3/1 5/3/1
f 8/3/1 6/3/1 7/3/1
f 11/3/1 10/3/1 9/3/1
f 12/3/1 10/3/1 11/3/1
f 13/3/2 14/3/2 15/3/2
f 15/3/2 14/3/2 16/3/2
f 17/3/2 18/3/2 19/3/2
f 19/3/2 18/3/2 20/3/2
f 21/3/2 22/3/2 23/3/2
f 23/3/2 22/3/2 24/3/2
f 27/3/3 26/3/3 25/3/3
f 28/3/3 26/3/3 27/3/3
f 29/2/3 28/2/3 27/2/3
f 30/2/3 28/2/3 29/2/3
f 31/2/3 28/2/3 30/2/3
f 32/2/3 28/2/3 31/2/3
f 33/2/3 28/2/3 32/2/3
f 34/2/3 28/2/3 33/2/3
f 35/2/3 28/2/3 34/2/3
f 36/2/3 28/2/3 35/2/3
f 37/2/3 28/2/3 36/2/3
f 38/2/3 28/2/3 37/2/3
f 40/3/3 27/3/3 25/3/3
f 41/2/3 29/2/3 27/2/3
f 41/1/3 30/1/3 29/1/3
f 42/2/3 31/2/3 30/2/3
f 42/1/3 30/1/3 41/1/3
f 43/1/3 32/1/3 31/1/3
f 43/2/3 31/2/3 42/2/3
f 44/2/3 33/2/3 32/2/3
f 44/1/3 32/1/3 43/1/3
f 45/1/3 34/1/3 33/1/3
f 45/2/3 33/2/3 44/2/3
f 46/2/3 35/2/3 34/2/3
f 46/1/3 34/1/3 45/1/3
f 47/3/3 26/3/3 28/3/3
f 49/3/3 40/3/3 39/3/3
f 50/3/3 27/3/3 40/3/3
f 50/3/3 40/3/3 49/3/3
f 51/3/3 48/3/3 47/3/3
f 51/3/3 47/3/3 28/3/3
f 52/3/3 48/3/3 51/3/3
f 53/3/3 49/3/3 39/3/3
f 53/2/3 50/2/3 49/2/3
f 54/3/3 27/3/3 50/3/3
f 54/2/3 50/2/3 53/2/3
f 55/2/3 52/2/3 51/2/3
f 55/3/3 51/3/3 28/3/3
f 56/3/3 48/3/3 52/3/3
f 56/2/3 52/2/3 55/2/3
f 57/3/3 53/3/3 39/3/3
f 57/3/3 54/3/3 53/3/3
f 58/3/3 27/3/3 54/3/3
f 58/3/3 54/3/3 57/3/3
f 59/2/3 41/2/3 27/2/3
f 59/2/3 42/2/3 41/2/3
f 59/2/3 43/2/3 42/2/3
f 59/2/3 44/2/3 43/2/3
f 59/2/3 45/2/3 44/2/3
f 59/2/3 46/2/3 45/2/3
f 60/2/3 46/2/3 59/2/3
f 61/2/3 46/2/3 60/2/3
f 62/2/3 46/2/3 61/2/3
f 63/2/3 46/2/3 62/2/3
f 64/2/3 35/2/3 46/2/3
f 64/2/3 46/2/3 63/2/3
f 65/3/3 55/3/3 28/3/3
f 65/3/3 56/3/3 55/3/3
f 66/3/3 48/3/3 56/3/3
f 66/3/3 56/3/3 65/3/3
f 67/2/3 59/2/3 27/2/3
f 67/1/3 60/1/3 59/1/3
f 68/2/3 61/2/3 60/2/3
f 68/1/3 60/1/3 67/1/3
f 69/1/3 62/1/3 61/1/3
f 69/2/3 61/2/3 68/2/3
f 70/2/3 63/2/3 62/2/3
f 70/1/3 62/1/3 69/1/3
f 71/1/3 64/1/3 63/1/3
f 71/2/3 63/2/3 70/2/3
f 72/2/3 35/2/3 64/2/3
f 72/1/3 64/1/3 71/1/3
f 73/1/3 36/1/3 35/1/3
f 73/2/3 35/2/3 72/2/3
f 74/2/3 37/2/3 36/2/3
f 74/1/3 36/1/3 73/1/3
f 75/1/3 38/1/3 37/1/3
f 75/2/3 37/2/3 74/2/3
f 76/2/3 28/2/3 38/2/3
f 76/1/3 38/1/3 75/1/3
f 77/2/3 75/2/3 74/2/3
f 77/2/3 69/2/3 68/2/3
f 77/2/3 76/2/3 75/2/3
f 77/2/3 67/2/3 27/2/3
f 77/2/3 68/2/3 67/2/3
f 77/2/3 74/2/3 73/2/3
f 77/2/3 73/2/3 72/2/3
f 77/2/3 72/2/3 71/2/3
f 77/2/3 71/2/3 70/2/3
f 77/3/3 27/3/3 58/3/3
f 77/2/3 70/2/3 69/2/3
f 78/2/3 28/2/3 76/2/3
f 78/2/3 76/2/3 77/2/3
f 78/3/3 65/3/3 28/3/3
f 79/3/3 77/3/3 58/3/3
f 79/3/3 78/3/3 77/3/3
f 80/3/3 65/3/3 78/3/3
f 80/3/3 78/3/3 79/3/3
f 81/3/4 82/3/4 83/3/4
f 83/3/4 82/3/4 84/3/4
f 83/2/4 84/2/4 85/2/4
f 85/2/4 84/2/4 86/2/4
f 86/2/4 84/2/4 87/2/4
f 87/2/4 84/2/4 88/2/4
f 88/2/4 84/2/4 89/2/4
f 89/2/4 84/2/4 90/2/4
f 90/2/4 84/2/4 91/2/4
f 91/2/4 84/2/4 92/2/4
f 92/2/4 84/2/4 93/2/4
f 93/2/4 84/2/4 94/2/4
f 81/3/4 83/3/4 96/3/4
f 83/2/4 85/2/4 97/2/4
f 85/1/4 86/1/4 97/1/4
f 86/2/4 87/2/4 98/2/4
f 97/1/4 86/1/4 98/1/4
f 87/1/4 88/1/4 99/1/4
f 98/2/4 87/2/4 99/2/4
f 88/2/4 89/2/4 100/2/4
f 99/1/4 88/1/4 100/1/4
f 89/1/4 90/1/4 101/1/4
f 100/2/4 89/2/4 101/2/4
f 90/2/4 91/2/4 102/2/4
f 101/1/4 90/1/4 102/1/4
f 84/3/4 82/3/4 103/3/4
f 95/3/4 96/3/4 105/3/4
f 96/3/4 83/3/4 106/3/4
f 105/3/4 96/3/4 106/3/4
f 103/3/4 104/3/4 107/3/4
f 84/3/4 103/3/4 107/3/4
f 107/3/4 104/3/4 108/3/4
f 95/3/4 105/3/4 109/3/4
f 105/2/4 106/2/4 109/2/4
f 106/3/4 83/3/4 110/3/4
f 109/2/4 106/2/4 110/2/4
f 107/2/4 108/2/4 111/2/4
f 84/3/4 107/3/4 111/3/4
f 108/3/4 104/3/4 112/3/4
f 111/2/4 108/2/4 112/2/4
f 95/3/4 109/3/4 113/3/4
f 109/3/4 110/3/4 113/3/4
f 110/3/4 83/3/4 114/3/4
f 113/3/4 110/3/4 114/3/4
f 83/2/4 97/2/4 115/2/4
f 97/2/4 98/2/4 115/2/4
f 98/2/4 99/2/4 115/2/4
f 99/2/4 100/2/4 115/2/4
f 100/2/4 101/2/4 115/2/4
f 101/2/4 102/2/4 115/2/4
f 115/2/4 102/2/4 116/2/4
f 116/2/4 102/2/4 117/2/4
f 117/2/4 102/2/4 118/2/4
f 118/2/4 102/2/4 119/2/4
f 102/2/4 91/2/4 120/2/4
f 119/2/4 102/2/4 120/2/4
f 84/3/4 111/3/4 121/3/4
f 111/3/4 112/3/4 121/3/4
f 112/3/4 104/3/4 122/3/4
f 121/3/4 112/3/4 122/3/4
f 83/2/4 115/2/4 123/2/4
f 115/1/4 116/1/4 123/1/4
f 116/2/4 117/2/4 124/2/4
f 123/1/4 116/1/4 124/1/4
f 117/1/4 118/1/4 125/1/4
f 124/2/4 117/2/4 125/2/4
f 118/2/4 119/2/4 126/2/4
f 125/1/4 118/1/4 126/1/4
f 119/1/4 120/1/4 127/1/4
f 126/2/4 119/2/4 127/2/4
f 120/2/4 91/2/4 128/2/4
f 127/1/4 120/1/4 128/1/4
f 91/1/4 92/1/4 129/1/4
f 128/2/4 91/2/4 129/2/4
f 92/2/4 93/2/4 130/2/4
f 129/1/4 92/1/4 130/1/4
f 93/1/4 94/1/4 131/1/4
f 130/2/4 93/2/4 131/2/4
f 94/2/4 84/2/4 132/2/4
f 131/1/4 94/1/4 132/1/4
f 130/2/4 131/2/4 133/2/4
f 124/2/4 125/2/4 133/2/4
f 131/2/4 132/2/4 133/2/4
f 83/2/4 123/2/4 133/2/4
f 123/2/4 124/2/4 133/2/4
f 129/2/4 130/2/4 133/2/4
f 128/2/4 129/2/4 133/2/4
f 127/2/4 128/2/4 133/2/4
f 126/2/4 127/2/4 133/2/4
f 114/3/4 83/3/4 133/3/4
f 125/2/4 126/2/4 133/2/4
f 132/2/4 84/2/4 134/2/4
f 133/2/4 132/2/4 134/2/4
f 84/3/4 121/3/4 134/3/4
f 114/3/4 133/3/4 135/3/4
f 133/3/4 134/3/4 135/3/4
f 134/3/4 121/3/4 136/3/4
f 135/3/4 134/3/4 136/3/4
f 139/3/5 138/3/5 137/3/5
f 140/3/5 138/3/5 139/3/5
f 145/3/5 142/3/5 141/3/5
f 146/3/5 142/3/5 145/3/5
f 147/3/5 144/3/5 143/3/5
f 148/3/5 144/3/5 147/3/5
f 149/3/6 150/3/6 153/3/6
f 153/3/6 150/3/6 154/3/6
f 151/3/6 152/3/6 155/3/6
f 155/3/6 152/3/6 156/3/6
f 157/3/6 158/3/6 159/3/6
f 159/3/6 158/3/6 160/3/6
